<svg xmlns="http://www.w3.org/2000/svg" viewBox="0 0 64 64" width="64" height="64">
  <defs>
    <radialGradient id="bodyGrad" cx="50%" cy="60%" r="50%">
      <stop offset="0%" stop-color="#FFE082"/>
      <stop offset="80%" stop-color="#FFA000"/>
      <stop offset="100%" stop-color="#E69100"/>
    </radialGradient>
  </defs>
  <!-- Dimmed outer glow -->
  <ellipse cx="32" cy="38" rx="18" ry="16" fill="#FFE082" opacity="0.1"/>
  <!-- Flame body - slightly droopy -->
  <path d="M32 12 Q41 20 41 31 Q41 42 38 48 Q36 52 32 52 Q28 52 26 48 Q23 42 23 31 Q23 20 32 12Z" fill="url(#bodyGrad)" stroke="#F9A825" stroke-width="1.2"/>
  <!-- Inner highlight - dimmer -->
  <path d="M32 18 Q36 24 36 31 Q36 38 34 42 Q32 44 30 42 Q28 38 28 31 Q28 24 32 18Z" fill="#FFF8E1" opacity="0.25"/>
  <!-- Closed eyes - curved lines -->
  <path d="M24 33 Q28 35 32 33" fill="none" stroke="#4E342E" stroke-width="1.8" stroke-linecap="round"/>
  <path d="M32 33 Q36 35 40 33" fill="none" stroke="#4E342E" stroke-width="1.8" stroke-linecap="round"/>
  <!-- Tiny sleepy mouth -->
  <ellipse cx="32" cy="39" rx="1.5" ry="2" fill="#BF360C" opacity="0.4"/>
  <!-- ZZZ -->
  <text x="44" y="20" font-family="sans-serif" font-size="7" font-weight="bold" fill="#FFD54F" opacity="0.8">z</text>
  <text x="48" y="14" font-family="sans-serif" font-size="9" font-weight="bold" fill="#FFD54F" opacity="0.6">z</text>
  <text x="53" y="8" font-family="sans-serif" font-size="11" font-weight="bold" fill="#FFD54F" opacity="0.4">z</text>
  <!-- Tiny flame - barely there -->
  <path d="M31 13 Q32 10 33 13" fill="none" stroke="#FFD54F" stroke-width="1" stroke-linecap="round" opacity="0.5"/>
</svg>
