<svg xmlns="http://www.w3.org/2000/svg" viewBox="0 0 64 64" width="64" height="64">
  <defs>
    <radialGradient id="bodyGrad" cx="50%" cy="55%" r="55%">
      <stop offset="0%" stop-color="#E1BEE7"/>
      <stop offset="40%" stop-color="#AB47BC"/>
      <stop offset="100%" stop-color="#6A1B9A"/>
    </radialGradient>
    <radialGradient id="innerGlow" cx="50%" cy="50%" r="50%">
      <stop offset="0%" stop-color="#FFFFFF" stop-opacity="0.4"/>
      <stop offset="100%" stop-color="#FFFFFF" stop-opacity="0"/>
    </radialGradient>
    <radialGradient id="cheek" cx="50%" cy="50%" r="50%">
      <stop offset="0%" stop-color="#F48FB1" stop-opacity="0.4"/>
      <stop offset="100%" stop-color="#F48FB1" stop-opacity="0"/>
    </radialGradient>
    <radialGradient id="moonGlow" cx="50%" cy="50%" r="50%">
      <stop offset="0%" stop-color="#FFF9C4"/>
      <stop offset="100%" stop-color="#FFF176" stop-opacity="0.2"/>
    </radialGradient>
  </defs>
  <!-- Majestic mystical aura -->
  <ellipse cx="32" cy="34" rx="30" ry="28" fill="#CE93D8" opacity="0.12"/>
  <ellipse cx="32" cy="34" rx="26" ry="24" fill="#E1BEE7" opacity="0.08"/>
  <!-- Majestic crystal body -->
  <path d="M32 4 Q20 12 16 28 Q14 42 20 50 Q24 56 28 58 Q30 60 32 60 Q34 60 36 58 Q40 56 44 50 Q50 42 48 28 Q44 12 32 4Z" fill="url(#bodyGrad)" stroke="#4A148C" stroke-width="1"/>
  <!-- Crystal facets -->
  <path d="M32 4 L40 20 L32 16Z" fill="#E1BEE7" opacity="0.25"/>
  <path d="M32 4 L24 20 L32 16Z" fill="#E1BEE7" opacity="0.2"/>
  <path d="M16 28 L22 22 L20 32Z" fill="#CE93D8" opacity="0.15"/>
  <path d="M48 28 L42 22 L44 32Z" fill="#CE93D8" opacity="0.15"/>
  <!-- Inner glow -->
  <ellipse cx="32" cy="32" rx="12" ry="16" fill="url(#innerGlow)"/>
  <!-- Majestic moon crown -->
  <path d="M26 10 Q20 8 20 14 Q20 20 26 20 Q22 18 22 14 Q22 10 26 10Z" fill="url(#moonGlow)" stroke="#FFF176" stroke-width="0.8"/>
  <!-- Crystal crown spires -->
  <path d="M36 6 L38 0 L40 6Z" fill="#CE93D8" opacity="0.6" stroke="#AB47BC" stroke-width="0.5"/>
  <path d="M24 8 L22 2 L20 8Z" fill="#CE93D8" opacity="0.5" stroke="#AB47BC" stroke-width="0.5"/>
  <!-- Floating crystal wings -->
  <path d="M16 28 Q8 22 6 26 Q8 30 14 30Z" fill="#CE93D8" opacity="0.4" stroke="#AB47BC" stroke-width="0.5"/>
  <path d="M48 28 Q56 22 58 26 Q56 30 50 30Z" fill="#CE93D8" opacity="0.4" stroke="#AB47BC" stroke-width="0.5"/>
  <!-- Wise mystical eyes -->
  <ellipse cx="27" cy="30" rx="3" ry="3.5" fill="#311B92"/>
  <ellipse cx="37" cy="30" rx="3" ry="3.5" fill="#311B92"/>
  <!-- Eye highlights -->
  <circle cx="28" cy="29" r="1.3" fill="white"/>
  <circle cx="38" cy="29" r="1.3" fill="white"/>
  <!-- Mystical star in eyes -->
  <circle cx="26" cy="31" r="0.5" fill="#E1BEE7"/>
  <circle cx="36" cy="31" r="0.5" fill="#E1BEE7"/>
  <!-- Cheeks -->
  <circle cx="20" cy="35" r="3.5" fill="url(#cheek)"/>
  <circle cx="44" cy="35" r="3.5" fill="url(#cheek)"/>
  <!-- Serene knowing smile -->
  <path d="M27 38 Q32 43 37 38" fill="none" stroke="#4A148C" stroke-width="1.3" stroke-linecap="round"/>
  <!-- Orbiting stars and crystals -->
  <path d="M4 16 L6 14 L8 16 L6 18Z" fill="#FFF176" opacity="0.6"/>
  <path d="M56 12 L58 10 L60 12 L58 14Z" fill="#FFF176" opacity="0.6"/>
  <path d="M2 40 L4 38 L6 40 L4 42Z" fill="#CE93D8" opacity="0.4"/>
  <path d="M58 38 L60 36 L62 38 L60 40Z" fill="#CE93D8" opacity="0.4"/>
  <!-- Floating particles -->
  <circle cx="10" cy="10" r="1" fill="#FFF176" opacity="0.5"/>
  <circle cx="54" cy="6" r="0.8" fill="#FFF176" opacity="0.4"/>
  <circle cx="8" cy="50" r="0.8" fill="#E1BEE7" opacity="0.3"/>
  <circle cx="56" cy="48" r="0.6" fill="#E1BEE7" opacity="0.3"/>
  <circle cx="12" cy="30" r="0.5" fill="#FFF176" opacity="0.3"/>
  <circle cx="52" cy="28" r="0.5" fill="#FFF176" opacity="0.3"/>
</svg>
