<svg xmlns="http://www.w3.org/2000/svg" viewBox="0 0 64 64" width="64" height="64">
  <defs>
    <radialGradient id="bodyGrad" cx="50%" cy="55%" r="50%">
      <stop offset="0%" stop-color="#CE93D8"/>
      <stop offset="100%" stop-color="#4A148C"/>
    </radialGradient>
    <radialGradient id="cheek" cx="50%" cy="50%" r="50%">
      <stop offset="0%" stop-color="#EF9A9A" stop-opacity="0.4"/>
      <stop offset="100%" stop-color="#EF9A9A" stop-opacity="0"/>
    </radialGradient>
  </defs>
  <!-- Dim sad glow -->
  <ellipse cx="32" cy="36" rx="20" ry="18" fill="#CE93D8" opacity="0.08"/>
  <!-- Crystal body - dimmed -->
  <path d="M32 12 Q42 18 44 32 Q44 46 38 52 Q34 56 32 56 Q30 56 26 52 Q20 46 20 32 Q22 18 32 12Z" fill="url(#bodyGrad)" stroke="#4A148C" stroke-width="1.2"/>
  <!-- Crystal facets - dark -->
  <path d="M32 12 L37 24 L32 20Z" fill="#E1BEE7" opacity="0.1"/>
  <!-- Inner highlight - very dim -->
  <ellipse cx="29" cy="28" rx="8" ry="10" fill="#E1BEE7" opacity="0.1"/>
  <!-- Moon - dimmed, sad -->
  <path d="M28 16 Q24 16 24 20 Q24 24 28 24 Q26 22 26 20 Q26 18 28 16Z" fill="#FFF9C4" opacity="0.3"/>
  <!-- Big sad eyes -->
  <ellipse cx="27" cy="33" rx="3.5" ry="4.5" fill="#311B92"/>
  <ellipse cx="37" cy="33" rx="3.5" ry="4.5" fill="#311B92"/>
  <!-- Eye highlights - looking up sadly -->
  <circle cx="28.5" cy="31" r="1.8" fill="white"/>
  <circle cx="38.5" cy="31" r="1.8" fill="white"/>
  <!-- Sad eyebrows -->
  <line x1="22" y1="27" x2="28" y2="28" stroke="#4A148C" stroke-width="1.2" stroke-linecap="round" opacity="0.5"/>
  <line x1="42" y1="27" x2="36" y2="28" stroke="#4A148C" stroke-width="1.2" stroke-linecap="round" opacity="0.5"/>
  <!-- Cheeks -->
  <circle cx="21" cy="38" r="3" fill="url(#cheek)"/>
  <circle cx="43" cy="38" r="3" fill="url(#cheek)"/>
  <!-- Sad frown -->
  <path d="M28 42 Q32 39 36 42" fill="none" stroke="#4A148C" stroke-width="1.3" stroke-linecap="round"/>
  <!-- Mystical tear -->
  <path d="M40 37 Q41 40 40 42 Q39 40 40 37Z" fill="#90CAF9" opacity="0.7"/>
  <!-- Scattered dim star particles - lonely -->
  <circle cx="12" cy="18" r="0.6" fill="#FFF176" opacity="0.2"/>
  <circle cx="52" cy="14" r="0.5" fill="#FFF176" opacity="0.15"/>
</svg>
