<svg xmlns="http://www.w3.org/2000/svg" viewBox="0 0 64 64" width="64" height="64">
  <defs>
    <radialGradient id="bodyGrad" cx="50%" cy="55%" r="50%">
      <stop offset="0%" stop-color="#CE93D8"/>
      <stop offset="80%" stop-color="#7B1FA2"/>
      <stop offset="100%" stop-color="#4A148C"/>
    </radialGradient>
  </defs>
  <!-- Dim mystical glow -->
  <ellipse cx="32" cy="36" rx="20" ry="18" fill="#CE93D8" opacity="0.08"/>
  <!-- Crystal body - slightly dimmer -->
  <path d="M32 12 Q43 18 45 32 Q45 46 39 52 Q35 56 32 56 Q29 56 25 52 Q19 46 19 32 Q21 18 32 12Z" fill="url(#bodyGrad)" stroke="#4A148C" stroke-width="1.2"/>
  <!-- Crystal facets dimmed -->
  <path d="M32 12 L37 24 L32 20Z" fill="#E1BEE7" opacity="0.1"/>
  <!-- Inner highlight - very dim -->
  <ellipse cx="29" cy="28" rx="8" ry="10" fill="#E1BEE7" opacity="0.12"/>
  <!-- Moon - dimmer -->
  <path d="M28 16 Q24 16 24 20 Q24 24 28 24 Q26 22 26 20 Q26 18 28 16Z" fill="#FFF9C4" opacity="0.4"/>
  <!-- Closed sleepy eyes -->
  <path d="M24 35 Q27 37 31 35" fill="none" stroke="#311B92" stroke-width="1.8" stroke-linecap="round"/>
  <path d="M33 35 Q37 37 40 35" fill="none" stroke="#311B92" stroke-width="1.8" stroke-linecap="round"/>
  <!-- Tiny sleepy mouth -->
  <ellipse cx="32" cy="41" rx="1.5" ry="2" fill="#4A148C" opacity="0.3"/>
  <!-- Floating ZZZ - mystical style -->
  <text x="44" y="22" font-family="sans-serif" font-size="7" font-weight="bold" fill="#CE93D8" opacity="0.8">z</text>
  <text x="48" y="16" font-family="sans-serif" font-size="9" font-weight="bold" fill="#CE93D8" opacity="0.6">z</text>
  <text x="53" y="10" font-family="sans-serif" font-size="11" font-weight="bold" fill="#CE93D8" opacity="0.4">z</text>
  <!-- Dim floating particles - dreaming -->
  <circle cx="12" cy="20" r="0.8" fill="#FFF176" opacity="0.3"/>
  <circle cx="52" cy="18" r="0.6" fill="#FFF176" opacity="0.2"/>
  <circle cx="8" cy="40" r="0.5" fill="#CE93D8" opacity="0.2"/>
</svg>
